# xmcd
#
# Track frame offsets:
# 150
# 11402
# 34495
# 52393
# 77307
# 107694
# 142302
# 154022
# 168909
# 178197
# 196359
# 218938
# 254805
# 266716
# 287641
#
# Disc length: 4600 seconds
#
#
# Revision: 0
# Processed by: cddbd v1.5.2PL0 Copyright (c) Steve Scherf et al.
# Submitted via: FreeRIP 2.96 
#
DISCID=e511f60f
DTITLE=Opern Festspiele St. Margarethen 2009 - Rigoletto
DYEAR=1900
DGENRE=Opera
TTITLE0=Overtüre
TTITLE1=Questo o quella
TTITLE2=Pari siamo
TTITLE3=Figlia
TTITLE4=Ti amo
TTITLE5=Gualtier Malde
TTITLE6=Ella mi fu rapita
TTITLE7=Parmi veder le lagrime
TTITLE8=Possente amor
TTITLE9=Povero rigoletto
TTITLE10=Cortiggiani, vil razza
TTITLE11=Parla ... siam soli
TTITLE12=La Donna e´mobile
TTITLE13=Bella figlia dellamore
TTITLE14=Della vendetta alfin
EXTD=
EXTT0=
EXTT1=
EXTT2=
EXTT3=
EXTT4=
EXTT5=
EXTT6=
EXTT7=
EXTT8=
EXTT9=
EXTT10=
EXTT11=
EXTT12=
EXTT13=
EXTT14=
PLAYORDER=
